<?xml version="1.0" standalone="no"?>
<!DOCTYPE svg PUBLIC "-//W3C//DTD SVG 20010904//EN"
 "http://www.w3.org/TR/2001/REC-SVG-20010904/DTD/svg10.dtd">
<svg version="1.0" xmlns="http://www.w3.org/2000/svg"
 width="270.000000pt" height="270.000000pt" viewBox="0 0 270.000000 270.000000"
 preserveAspectRatio="xMidYMid meet">
<metadata>
Created by potrace 1.14, written by Peter Selinger 2001-2017
</metadata>
<g transform="translate(0.000000,270.000000) scale(0.100000,-0.100000)"
fill="#000000" stroke="none">
<path d="M2039 1977 c-51 -34 -71 -80 -66 -149 6 -70 32 -110 87 -132 56 -22
108 -20 160 7 53 27 80 74 80 137 0 100 -62 160 -165 160 -48 0 -70 -5 -96
-23z m171 -5 c47 -23 72 -70 72 -132 -1 -99 -56 -146 -161 -138 -53 4 -66 9
-93 36 -28 27 -32 39 -36 94 -2 51 1 70 18 96 37 59 130 80 200 44z"/>
<path d="M2067 1933 c-3 -5 -5 -47 -5 -95 0 -79 2 -88 19 -88 15 0 19 7 19 35
0 25 4 35 15 35 9 0 25 -16 36 -35 13 -21 29 -35 41 -35 20 0 20 0 -1 36 l-22
37 21 14 c28 19 27 67 -2 87 -23 16 -113 22 -121 9z m98 -53 c0 -32 -3 -35
-32 -38 -32 -3 -33 -3 -33 38 0 41 1 41 33 38 29 -3 32 -6 32 -38z"/>
<path d="M450 1411 l0 -551 175 0 175 0 0 205 0 205 38 0 37 -1 97 -202 97
-202 196 -3 196 -2 -117 230 c-64 127 -115 232 -113 234 2 2 18 10 35 19 46
23 114 96 138 147 30 65 29 195 -3 267 -38 86 -117 145 -238 180 -47 13 -122
17 -385 20 l-328 5 0 -551z m558 413 c46 -32 57 -70 57 -204 0 -195 -28 -230
-184 -230 l-81 0 0 225 0 225 93 0 c68 0 99 -4 115 -16z"/>
<path d="M1782 1609 c-125 -24 -231 -108 -270 -212 -40 -106 -37 -252 7 -353
20 -44 80 -108 124 -131 76 -39 177 -54 352 -53 94 0 190 4 215 8 l45 7 3 46
3 47 -168 -2 c-145 -1 -173 1 -201 17 -38 21 -60 65 -69 138 l-6 49 232 0 231
0 0 95 c0 150 -52 255 -153 306 -82 42 -238 59 -345 38z m164 -123 c10 -16 18
-58 21 -120 l6 -96 -77 0 -76 0 0 63 c1 79 16 148 37 165 28 20 71 15 89 -12z"/>
</g>
</svg>
